<?xml version="1.0" encoding="utf-8" ?>
<svg xmlns="http://www.w3.org/2000/svg" xmlns:ev="http://www.w3.org/2001/xml-events" xmlns:xlink="http://www.w3.org/1999/xlink" baseProfile="tiny" height="560.0px" version="1.2" width="660.0px">
  <defs/>
  <rect fill="white" height="560.0" stroke="black" width="660.0" x="0" y="0"/>
  <rect fill="wheat" height="180.0" stroke="darkred" stroke-width="2" width="112.5" x="80" y="140"/>
  <rect fill="lightgray" height="90.0" stroke="darkred" stroke-width="2" width="37.5" x="192.5" y="230.0"/>
  <rect fill="gray" height="4" stroke="black" stroke-width="1" width="33.5" x="194.5" y="318.0"/>
  <text fill="black" font-size="7px" font-weight="bold" x="197.5" y="250.0">GARAGE</text>
  <line stroke="darkred" stroke-dasharray="3,3" stroke-width="1" x1="80" x2="192.5" y1="248.0" y2="248.0"/>
  <text fill="darkred" font-size="8px" x="121.25" y="284.0">LIVING</text>
  <line stroke="darkred" stroke-dasharray="3,3" stroke-width="1" x1="136.25" x2="136.25" y1="140" y2="248.0"/>
  <text fill="darkred" font-size="8px" x="100.125" y="194.0">BR1</text>
  <text fill="darkred" font-size="8px" x="156.375" y="194.0">BR2</text>
  <rect fill="brown" height="4" stroke="black" stroke-width="1" width="15" x="128.75" y="318.0"/>
  <text fill="brown" font-size="7px" font-weight="bold" x="118.75" y="332.0">ENTRANCE</text>
  <rect fill="lightblue" height="12" stroke="blue" stroke-width="1" width="4" x="78" y="194.0"/>
  <rect fill="lightblue" height="12" stroke="blue" stroke-width="1" width="4" x="190.5" y="194.0"/>
  <rect fill="lightblue" height="12" stroke="blue" stroke-width="1" width="4" x="78" y="254.0"/>
  <rect fill="lightblue" height="12" stroke="blue" stroke-width="1" width="4" x="190.5" y="254.0"/>
  <rect fill="wheat" height="52.5" stroke="darkred" stroke-width="2" width="105.0" x="350.0" y="140"/>
  <polygon fill="darkslategray" points="345.0,140 460.0,140 455.0,130 350.0,130" stroke="black" stroke-width="1"/>
  <rect fill="lightgray" height="34.125" stroke="darkred" stroke-width="2" width="45.0" x="455.0" y="158.375"/>
  <line stroke="gray" stroke-width="1" x1="457.0" x2="498.0" y1="158.375" y2="158.375"/>
  <line stroke="gray" stroke-width="1" x1="457.0" x2="498.0" y1="165.2" y2="165.2"/>
  <line stroke="gray" stroke-width="1" x1="457.0" x2="498.0" y1="172.025" y2="172.025"/>
  <line stroke="gray" stroke-width="1" x1="457.0" x2="498.0" y1="178.85" y2="178.85"/>
  <line stroke="gray" stroke-width="1" x1="457.0" x2="498.0" y1="185.675" y2="185.675"/>
  <rect fill="saddlebrown" height="30" stroke="black" stroke-width="2" width="15" x="395.0" y="162.5"/>
  <circle cx="407.0" cy="177.5" fill="gold" r="2" stroke="black"/>
  <text fill="black" font-size="16px" font-weight="bold" x="80" y="115">TOP VIEW</text>
  <text fill="black" font-size="16px" font-weight="bold" x="350.0" y="115">FRONT VIEW</text>
  <text fill="red" font-size="14px" font-weight="bold" x="80" y="370.0">Dimensions: 12.00m × 10.00m × 3.50m</text>
  <line stroke="red" stroke-width="1.5" x1="80" x2="230.0" y1="335.0" y2="335.0"/>
  <line stroke="red" stroke-width="1.5" x1="80" x2="80" y1="327.0" y2="343.0"/>
  <line stroke="red" stroke-width="1.5" x1="230.0" x2="230.0" y1="327.0" y2="343.0"/>
  <text fill="red" font-size="11px" x="140.0" y="353.0">10.00m</text>
  <line stroke="red" stroke-width="1.5" x1="245.0" x2="245.0" y1="140" y2="320.0"/>
  <line stroke="red" stroke-width="1.5" x1="237.0" x2="253.0" y1="140" y2="140"/>
  <line stroke="red" stroke-width="1.5" x1="237.0" x2="253.0" y1="320.0" y2="320.0"/>
  <text fill="red" font-size="11px" transform="rotate(-90,255.0,230.0)" x="255.0" y="235.0">12.00m</text>
  <line stroke="red" stroke-width="1.5" x1="350.0" x2="500.0" y1="207.5" y2="207.5"/>
  <line stroke="red" stroke-width="1.5" x1="350.0" x2="350.0" y1="199.5" y2="215.5"/>
  <line stroke="red" stroke-width="1.5" x1="500.0" x2="500.0" y1="199.5" y2="215.5"/>
  <text fill="red" font-size="11px" x="410.0" y="225.5">10.00m</text>
  <line stroke="red" stroke-width="1.5" x1="515.0" x2="515.0" y1="140" y2="192.5"/>
  <line stroke="red" stroke-width="1.5" x1="507.0" x2="523.0" y1="140" y2="140"/>
  <line stroke="red" stroke-width="1.5" x1="507.0" x2="523.0" y1="192.5" y2="192.5"/>
  <text fill="red" font-size="11px" transform="rotate(-90,525.0,166.25)" x="525.0" y="171.25">3.50m</text>
</svg>
