<?xml version="1.0" encoding="utf-8" ?>
<svg xmlns="http://www.w3.org/2000/svg" xmlns:ev="http://www.w3.org/2001/xml-events" xmlns:xlink="http://www.w3.org/1999/xlink" baseProfile="tiny" height="560.0px" version="1.2" width="720.0px">
  <defs/>
  <rect fill="white" height="560.0" stroke="black" width="720.0" x="0" y="0"/>
  <circle cx="170.0" cy="230.0" fill="lightgreen" r="90.0" stroke="green" stroke-width="2"/>
  <text fill="black" font-size="20px" font-weight="bold" x="165.0" y="235.0">Ø</text>
  <circle cx="170.0" cy="167.0" fill="red" r="5" stroke="darkred" stroke-width="2"/>
  <circle cx="233.0" cy="230.0" fill="red" r="5" stroke="darkred" stroke-width="2"/>
  <circle cx="170.0" cy="293.0" fill="red" r="5" stroke="darkred" stroke-width="2"/>
  <circle cx="107.0" cy="230.0" fill="red" r="5" stroke="darkred" stroke-width="2"/>
  <text fill="red" font-size="9px" font-weight="bold" x="115.0" y="125">Leg to edge distance: 18 cm</text>
  <rect fill="lightgreen" height="8" stroke="green" stroke-width="2" width="180.0" x="380.0" y="140"/>
  <line stroke="brown" stroke-width="4" x1="390.0" x2="390.0" y1="148" y2="252.5"/>
  <line stroke="brown" stroke-width="4" x1="550.0" x2="550.0" y1="148" y2="252.5"/>
  <text fill="black" font-size="16px" font-weight="bold" x="80" y="115">TOP VIEW</text>
  <text fill="black" font-size="16px" font-weight="bold" x="380.0" y="115">FRONT VIEW</text>
  <text fill="red" font-size="14px" font-weight="bold" x="80" y="370.0">Dimensions: 1.20m × 1.20m × 0.75m</text>
  <line stroke="red" stroke-width="1.5" x1="80" x2="260.0" y1="335.0" y2="335.0"/>
  <line stroke="red" stroke-width="1.5" x1="80" x2="80" y1="327.0" y2="343.0"/>
  <line stroke="red" stroke-width="1.5" x1="260.0" x2="260.0" y1="327.0" y2="343.0"/>
  <text fill="red" font-size="11px" x="155.0" y="353.0">1.20m</text>
  <line stroke="red" stroke-width="1.5" x1="275.0" x2="275.0" y1="140" y2="320.0"/>
  <line stroke="red" stroke-width="1.5" x1="267.0" x2="283.0" y1="140" y2="140"/>
  <line stroke="red" stroke-width="1.5" x1="267.0" x2="283.0" y1="320.0" y2="320.0"/>
  <text fill="red" font-size="11px" transform="rotate(-90,285.0,230.0)" x="285.0" y="235.0">1.20m</text>
  <line stroke="red" stroke-width="1.5" x1="380.0" x2="560.0" y1="267.5" y2="267.5"/>
  <line stroke="red" stroke-width="1.5" x1="380.0" x2="380.0" y1="259.5" y2="275.5"/>
  <line stroke="red" stroke-width="1.5" x1="560.0" x2="560.0" y1="259.5" y2="275.5"/>
  <text fill="red" font-size="11px" x="455.0" y="285.5">1.20m</text>
  <line stroke="red" stroke-width="1.5" x1="575.0" x2="575.0" y1="140" y2="252.5"/>
  <line stroke="red" stroke-width="1.5" x1="567.0" x2="583.0" y1="140" y2="140"/>
  <line stroke="red" stroke-width="1.5" x1="567.0" x2="583.0" y1="252.5" y2="252.5"/>
  <text fill="red" font-size="11px" transform="rotate(-90,585.0,196.25)" x="585.0" y="201.25">0.75m</text>
</svg>
