<?xml version="1.0" encoding="utf-8" ?>
<svg baseProfile="full" height="1380.0px" version="1.1" width="2300.0px" xmlns="http://www.w3.org/2000/svg" xmlns:ev="http://www.w3.org/2001/xml-events" xmlns:xlink="http://www.w3.org/1999/xlink"><defs /><path d="M 100 100 L 900.0 100 L 900.0 1100.0 L 100 1100.0 L 100 100" fill="none" stroke="#4A90E2" stroke-width="2" /><path d="M 100 580.0 L 100 620.0" fill="none" stroke="#4A90E2" stroke-width="2" /><path d="M 485.0 1100.0 L 515.0 1100.0" fill="none" stroke="#4A90E2" stroke-width="2" /><text fill="white" font-family="Arial" font-size="14px" font-weight="bold" x="100" y="80">TOP VIEW</text><path d="M 1000.0 100 L 1800.0 100 L 1800.0 700.0 L 1000.0 700.0 L 1000.0 100" fill="none" stroke="#4A90E2" stroke-width="2" /><path d="M 1380.0 100 L 1420.0 100 L 1420.0 580.0 L 1380.0 580.0 L 1380.0 100" fill="none" stroke="#4A90E2" stroke-width="2" /><path d="M 1385.0 280.0 L 1415.0 280.0 L 1415.0 520.0 L 1385.0 520.0 L 1385.0 280.0" fill="none" stroke="#4A90E2" stroke-width="2" /><text fill="white" font-family="Arial" font-size="14px" font-weight="bold" x="1000.0" y="80">FRONT VIEW</text><line stroke="#00D9FF" stroke-width="1" x1="100" x2="900.0" y1="1120.0" y2="1120.0" /><text fill="#00D9FF" font-size="10px" text-anchor="middle" x="500.0" y="1135.0">400.0 cm</text><line stroke="#00D9FF" stroke-width="1" x1="920.0" x2="920.0" y1="100" y2="1100.0" /><text fill="#00D9FF" font-size="10px" text-anchor="middle" transform="rotate(-90, 935.0, 600.0)" x="935.0" y="600.0">500.0 cm</text><line stroke="#00D9FF" stroke-width="1" x1="1000.0" x2="1800.0" y1="720.0" y2="720.0" /><text fill="#00D9FF" font-size="10px" text-anchor="middle" x="1400.0" y="735.0">400.0 cm</text><line stroke="#00D9FF" stroke-width="1" x1="1820.0" x2="1820.0" y1="100" y2="700.0" /><text fill="#00D9FF" font-size="10px" text-anchor="middle" transform="rotate(-90, 1835.0, 400.0)" x="1835.0" y="400.0">300.0 cm</text></svg>