<?xml version="1.0" encoding="utf-8" ?>
<svg baseProfile="full" height="570.0px" version="1.1" width="680.0px" xmlns="http://www.w3.org/2000/svg" xmlns:ev="http://www.w3.org/2001/xml-events" xmlns:xlink="http://www.w3.org/1999/xlink"><defs /><path d="M 100 100 L 190.0 100 L 190.0 190.0 L 100 190.0 L 100 100" fill="none" stroke="#4A90E2" stroke-width="2" /><path d="M 106.0 106.0 L 118.0 106.0 L 118.0 118.0 L 106.0 118.0 L 106.0 106.0" fill="none" stroke="#4A90E2" stroke-width="2" /><path d="M 172.0 106.0 L 184.0 106.0 L 184.0 118.0 L 172.0 118.0 L 172.0 106.0" fill="none" stroke="#4A90E2" stroke-width="2" /><path d="M 172.0 172.0 L 184.0 172.0 L 184.0 184.0 L 172.0 184.0 L 172.0 172.0" fill="none" stroke="#4A90E2" stroke-width="2" /><path d="M 106.0 172.0 L 118.0 172.0 L 118.0 184.0 L 106.0 184.0 L 106.0 172.0" fill="none" stroke="#4A90E2" stroke-width="2" /><text fill="white" font-family="Arial" font-size="14px" font-weight="bold" x="100" y="80">TOP VIEW</text><path d="M 290.0 202.0 L 380.0 202.0 L 380.0 214.0 L 290.0 214.0 L 290.0 202.0" fill="none" stroke="#4A90E2" stroke-width="2" /><path d="M 368.0 214.0 L 380.0 214.0 L 380.0 100 L 368.0 100 L 368.0 214.0" fill="none" stroke="#4A90E2" stroke-width="2" /><path d="M 290.0 290.0 L 306.0 290.0 L 306.0 214.0 L 290.0 214.0 L 290.0 290.0" fill="none" stroke="#4A90E2" stroke-width="2" /><path d="M 364.0 290.0 L 380.0 290.0 L 380.0 214.0 L 364.0 214.0 L 364.0 290.0" fill="none" stroke="#4A90E2" stroke-width="2" /><text fill="white" font-family="Arial" font-size="14px" font-weight="bold" x="290.0" y="80">FRONT VIEW</text><line stroke="#00D9FF" stroke-width="1" x1="100" x2="190.0" y1="210.0" y2="210.0" /><text fill="#00D9FF" font-size="10px" text-anchor="middle" x="145.0" y="225.0">45.0 cm</text><line stroke="#00D9FF" stroke-width="1" x1="210.0" x2="210.0" y1="100" y2="190.0" /><text fill="#00D9FF" font-size="10px" text-anchor="middle" transform="rotate(-90, 225.0, 145.0)" x="225.0" y="145.0">45.0 cm</text><line stroke="#00D9FF" stroke-width="1" x1="290.0" x2="380.0" y1="310.0" y2="310.0" /><text fill="#00D9FF" font-size="10px" text-anchor="middle" x="335.0" y="325.0">45.0 cm</text><line stroke="#00D9FF" stroke-width="1" x1="400.0" x2="400.0" y1="100" y2="290.0" /><text fill="#00D9FF" font-size="10px" text-anchor="middle" transform="rotate(-90, 415.0, 195.0)" x="415.0" y="195.0">95.0 cm</text></svg>