<?xml version="1.0" encoding="utf-8" ?>
<svg baseProfile="full" height="660.0px" version="1.1" width="920.0px" xmlns="http://www.w3.org/2000/svg" xmlns:ev="http://www.w3.org/2001/xml-events" xmlns:xlink="http://www.w3.org/1999/xlink"><defs /><path d="M 100 100 L 380.0 100 L 380.0 240.0 L 100 240.0 L 100 100" fill="none" stroke="#4A90E2" stroke-width="2" /><path d="M 110.0 110.0 L 118.0 110.0 L 118.0 118.0 L 110.0 118.0 L 110.0 110.0" fill="none" stroke="#4A90E2" stroke-width="2" /><path d="M 362.0 110.0 L 370.0 110.0 L 370.0 118.0 L 362.0 118.0 L 362.0 110.0" fill="none" stroke="#4A90E2" stroke-width="2" /><path d="M 362.0 222.0 L 370.0 222.0 L 370.0 230.0 L 362.0 230.0 L 362.0 222.0" fill="none" stroke="#4A90E2" stroke-width="2" /><path d="M 110.0 222.0 L 118.0 222.0 L 118.0 230.0 L 110.0 230.0 L 110.0 222.0" fill="none" stroke="#4A90E2" stroke-width="2" /><text fill="white" font-family="Arial" font-size="14px" font-weight="bold" x="100" y="80">TOP VIEW</text><path d="M 480.0 107.0 L 760.0 107.0 L 760.0 115.0 L 480.0 115.0 L 480.0 107.0" fill="none" stroke="#4A90E2" stroke-width="2" /><path d="M 492.0 250.0 L 504.0 250.0 L 504.0 115.0 L 492.0 115.0 L 492.0 250.0" fill="none" stroke="#4A90E2" stroke-width="2" /><path d="M 736.0 250.0 L 748.0 250.0 L 748.0 115.0 L 736.0 115.0 L 736.0 250.0" fill="none" stroke="#4A90E2" stroke-width="2" /><text fill="white" font-family="Arial" font-size="14px" font-weight="bold" x="480.0" y="80">FRONT VIEW</text><line stroke="#00D9FF" stroke-width="1" x1="100" x2="380.0" y1="260.0" y2="260.0" /><text fill="#00D9FF" font-size="10px" text-anchor="middle" x="240.0" y="275.0">140.0 cm</text><line stroke="#00D9FF" stroke-width="1" x1="400.0" x2="400.0" y1="100" y2="240.0" /><text fill="#00D9FF" font-size="10px" text-anchor="middle" transform="rotate(-90, 415.0, 170.0)" x="415.0" y="170.0">70.0 cm</text><line stroke="#00D9FF" stroke-width="1" x1="480.0" x2="760.0" y1="270.0" y2="270.0" /><text fill="#00D9FF" font-size="10px" text-anchor="middle" x="620.0" y="285.0">140.0 cm</text><line stroke="#00D9FF" stroke-width="1" x1="780.0" x2="780.0" y1="100" y2="250.0" /><text fill="#00D9FF" font-size="10px" text-anchor="middle" transform="rotate(-90, 795.0, 175.0)" x="795.0" y="175.0">75.0 cm</text></svg>